<svg xmlns="http://www.w3.org/2000/svg" viewBox="0 0 760 340" width="760" height="340" role="img" aria-label="A reinforcement learning agent exploring a maze and converging to the optimal policy" xmlns:c2pa="http://c2pa.org/manifest"><metadata><c2pa:manifest>AAAWgmp1bWIAAAAeanVtZGMycGEAEQAQgAAAqgA4m3EDYzJwYQAAABZcanVtYgAAAEdqdW1kYzJtYQARABCAAACqADibcQN1cm46YzJwYTplZmMyZGJlZC01NTJlLTRjYTItODU1OS0xMTM1MmFhNTlkYTQAAAADl2p1bWIAAAApanVtZGMyYXMAEQAQgAAAqgA4m3EDYzJwYS5hc3NlcnRpb25zAAAAALxqdW1iAAAARGp1bWRjYm9yABEAEIAAAKoAOJtxE2MycGEuaW5ncmVkaWVudC52MwAAAAAYYzJzaGIavDQzEsW1imNhk5BjEUoAAABwY2JvcqNpZGM6Zm9ybWF0bWltYWdlL3N2Zyt4bWxqaW5zdGFuY2VJRHgseG1wOmlpZDo3ZmM1Y2IxMC1mN2MwLTRlOTUtODc2MS0zODViZWY2Zjk5MDlscmVsYXRpb25zaGlwaHBhcmVudE9mAAAB4mp1bWIAAABBanVtZGNib3IAEQAQgAAAqgA4m3ETYzJwYS5hY3Rpb25zLnYyAAAAABhjMnNoMLUQF3u3M4aKFqahyELxawAAAZljYm9yomdhY3Rpb25zgqJmYWN0aW9ua2MycGEub3BlbmVkanBhcmFtZXRlcnOha2luZ3JlZGllbnRzgaJjdXJseC1zZWxmI2p1bWJmPWMycGEuYXNzZXJ0aW9ucy9jMnBhLmluZ3JlZGllbnQudjNkaGFzaFgg1E/YtlrfrTwgV+FIKIMBXvrkhyEFzhSXogVWkG4v/QGkZmFjdGlvbngdY29tLmFudGhyb3BpYy5jbGF1ZGUucHJvdmlkZWRqcGFyYW1ldGVyc6F4H2NvbS5hbnRocm9waWMub3JpZ2luLWNvbmZpZGVuY2VndW5rbm93bmtkZXNjcmlwdGlvbnhmQ2xhdWRlIHByb3ZpZGVkIHRoaXMgZmlsZSBhdCB0aGUgcmVxdWVzdCBvZiBhIHVzZXIgYW5kIG1heSBoYXZlIGNyZWF0ZWQgb3IgbW9kaWZpZWQgdGhlIGZpbGUgY29udGVudHMubXNvZnR3YXJlQWdlbnShZG5hbWVmQ2xhdWRlcmFsbEFjdGlvbnNJbmNsdWRlZPUAAADIanVtYgAAAEBqdW1kY2JvcgARABCAAACqADibcRNjMnBhLmhhc2guZGF0YQAAAAAYYzJzaIKjodzbJxKXLU6LT0R2zDcAAACAY2JvcqVjYWxnZnNoYTI1NmNwYWRMAAAAAAAAAAAAAAAAZGhhc2hYIG+0qiTOj01wnwcpo/lgDOpukn3vVhz6m5q1dMZHyNPIZG5hbWVuanVtYmYgbWFuaWZlc3RqZXhjbHVzaW9uc4GiZXN0YXJ0GQEDZmxlbmd0aBkeBAAAAj5qdW1iAAAAJ2p1bWRjMmNsABEAEIAAAKoAOJtxA2MycGEuY2xhaW0udjIAAAACD2Nib3KlY2FsZ2ZzaGEyNTZpc2lnbmF0dXJleE1zZWxmI2p1bWJmPS9jMnBhL3VybjpjMnBhOmVmYzJkYmVkLTU1MmUtNGNhMi04NTU5LTExMzUyYWE1OWRhNC9jMnBhLnNpZ25hdHVyZWppbnN0YW5jZUlEeCx4bXA6aWlkOmEwN2JkNWEwLThiZTEtNDU5ZC1iZmI0LWJlZDJjYTUwYjM1YnJjcmVhdGVkX2Fzc2VydGlvbnODomN1cmx4LXNlbGYjanVtYmY9YzJwYS5hc3NlcnRpb25zL2MycGEuaW5ncmVkaWVudC52M2RoYXNoWCDUT9i2Wt+tPCBX4UgogwFe+uSHIQXOFJeiBVaQbi/9AaJjdXJseCpzZWxmI2p1bWJmPWMycGEuYXNzZXJ0aW9ucy9jMnBhLmFjdGlvbnMudjJkaGFzaFggi+wJ39L2Egg2zzA2DLiY11O1WjqQUQ/8PV2Aka8iRzGiY3VybHgpc2VsZiNqdW1iZj1jMnBhLmFzc2VydGlvbnMvYzJwYS5oYXNoLmRhdGFkaGFzaFggIQ3npk4K7WBK2fl1nQfeWOvPBY2D8OTIokkCqTTpj9B0Y2xhaW1fZ2VuZXJhdG9yX2luZm+jZG5hbWVvQW50aHJvcGljIEZpbGVzZ3ZlcnNpb25lMS4wLjBrc3BlY1ZlcnNpb25lMi40LjAAABA4anVtYgAAAChqdW1kYzJjcwARABCAAACqADibcQNjMnBhLnNpZ25hdHVyZQAAABAIY2JvctKEWQISogEmGCFZAgowggIGMIIBjaADAgECAhRA5aAK7sI50L64g/oGQgU9Z1UTADAKBggqhkjOPQQDAzBJMRcwFQYDVQQKEw5BbnRocm9waWMsIFBCQzEuMCwGA1UEAxMlQW50aHJvcGljIENvbnRlbnQgQ3JlZGVudGlhbHMgUm9vdCBDQTAeFw0yNjA4MDcxODQzNTZaFw0yODA4MDYxOTQzNTZaMEQxFzAVBgNVBAoTDkFudGhyb3BpYywgUEJDMSkwJwYDVQQDEyBBbnRocm9waWMgQ2xhdWRlIENvbnRlbnQgU2lnbmluZzBZMBMGByqGSM49AgEGCCqGSM49AwEHA0IABJh6CmvLUBgFFNU0vUKlOVtE6djd17L5SuwX0LemFisBM3dkd/3cyjxFA3Qo5S46fX0/ihY0VZ7mfb9KF703t5OjWDBWMA4GA1UdDwEB/wQEAwIHgDAVBgNVHSUEDjAMBgorBgEEAYPoXgIBMAwGA1UdEwEB/wQCMAAwHwYDVR0jBBgwFoAUzlHiBIFOZFsj+OPEz5o+nMHXXMIwCgYIKoZIzj0EAwMDZwAwZAIwMXMdFJ4BetLLVY7ORuE9noqbbAZOZn/aArXyTwFAZfKrPzxF2vPoJNf1+UCdg1XGAjBwX1zd9WGqYkqmL5SFqw1QySjr1zJfpJM9+1rdDwSPLMOPOjKuiXjoU/pUUeG9RwmhY3BhZFkNngAAAAAAAAAAAAAAAAAAAAAAAAAAAAAAAAAAAAAAAAAAAAAAAAAAAAAAAAAAAAAAAAAAAAAAAAAAAAAAAAAAAAAAAAAAAAAAAAAAAAAAAAAAAAAAAAAAAAAAAAAAAAAAAAAAAAAAAAAAAAAAAAAAAAAAAAAAAAAAAAAAAAAAAAAAAAAAAAAAAAAAAAAAAAAAAAAAAAAAAAAAAAAAAAAAAAAAAAAAAAAAAAAAAAAAAAAAAAAAAAAAAAAAAAAAAAAAAAAAAAAAAAAAAAAAAAAAAAAAAAAAAAAAAAAAAAAAAAAAAAAAAAAAAAAAAAAAAAAAAAAAAAAAAAAAAAAAAAAAAAAAAAAAAAAAAAAAAAAAAAAAAAAAAAAAAAAAAAAAAAAAAAAAAAAAAAAAAAAAAAAAAAAAAAAAAAAAAAAAAAAAAAAAAAAAAAAAAAAAAAAAAAAAAAAAAAAAAAAAAAAAAAAAAAAAAAAAAAAAAAAAAAAAAAAAAAAAAAAAAAAAAAAAAAAAAAAAAAAAAAAAAAAAAAAAAAAAAAAAAAAAAAAAAAAAAAAAAAAAAAAAAAAAAAAAAAAAAAAAAAAAAAAAAAAAAAAAAAAAAAAAAAAAAAAAAAAAAAAAAAAAAAAAAAAAAAAAAAAAAAAAAAAAAAAAAAAAAAAAAAAAAAAAAAAAAAAAAAAAAAAAAAAAAAAAAAAAAAAAAAAAAAAAAAAAAAAAAAAAAAAAAAAAAAAAAAAAAAAAAAAAAAAAAAAAAAAAAAAAAAAAAAAAAAAAAAAAAAAAAAAAAAAAAAAAAAAAAAAAAAAAAAAAAAAAAAAAAAAAAAAAAAAAAAAAAAAAAAAAAAAAAAAAAAAAAAAAAAAAAAAAAAAAAAAAAAAAAAAAAAAAAAAAAAAAAAAAAAAAAAAAAAAAAAAAAAAAAAAAAAAAAAAAAAAAAAAAAAAAAAAAAAAAAAAAAAAAAAAAAAAAAAAAAAAAAAAAAAAAAAAAAAAAAAAAAAAAAAAAAAAAAAAAAAAAAAAAAAAAAAAAAAAAAAAAAAAAAAAAAAAAAAAAAAAAAAAAAAAAAAAAAAAAAAAAAAAAAAAAAAAAAAAAAAAAAAAAAAAAAAAAAAAAAAAAAAAAAAAAAAAAAAAAAAAAAAAAAAAAAAAAAAAAAAAAAAAAAAAAAAAAAAAAAAAAAAAAAAAAAAAAAAAAAAAAAAAAAAAAAAAAAAAAAAAAAAAAAAAAAAAAAAAAAAAAAAAAAAAAAAAAAAAAAAAAAAAAAAAAAAAAAAAAAAAAAAAAAAAAAAAAAAAAAAAAAAAAAAAAAAAAAAAAAAAAAAAAAAAAAAAAAAAAAAAAAAAAAAAAAAAAAAAAAAAAAAAAAAAAAAAAAAAAAAAAAAAAAAAAAAAAAAAAAAAAAAAAAAAAAAAAAAAAAAAAAAAAAAAAAAAAAAAAAAAAAAAAAAAAAAAAAAAAAAAAAAAAAAAAAAAAAAAAAAAAAAAAAAAAAAAAAAAAAAAAAAAAAAAAAAAAAAAAAAAAAAAAAAAAAAAAAAAAAAAAAAAAAAAAAAAAAAAAAAAAAAAAAAAAAAAAAAAAAAAAAAAAAAAAAAAAAAAAAAAAAAAAAAAAAAAAAAAAAAAAAAAAAAAAAAAAAAAAAAAAAAAAAAAAAAAAAAAAAAAAAAAAAAAAAAAAAAAAAAAAAAAAAAAAAAAAAAAAAAAAAAAAAAAAAAAAAAAAAAAAAAAAAAAAAAAAAAAAAAAAAAAAAAAAAAAAAAAAAAAAAAAAAAAAAAAAAAAAAAAAAAAAAAAAAAAAAAAAAAAAAAAAAAAAAAAAAAAAAAAAAAAAAAAAAAAAAAAAAAAAAAAAAAAAAAAAAAAAAAAAAAAAAAAAAAAAAAAAAAAAAAAAAAAAAAAAAAAAAAAAAAAAAAAAAAAAAAAAAAAAAAAAAAAAAAAAAAAAAAAAAAAAAAAAAAAAAAAAAAAAAAAAAAAAAAAAAAAAAAAAAAAAAAAAAAAAAAAAAAAAAAAAAAAAAAAAAAAAAAAAAAAAAAAAAAAAAAAAAAAAAAAAAAAAAAAAAAAAAAAAAAAAAAAAAAAAAAAAAAAAAAAAAAAAAAAAAAAAAAAAAAAAAAAAAAAAAAAAAAAAAAAAAAAAAAAAAAAAAAAAAAAAAAAAAAAAAAAAAAAAAAAAAAAAAAAAAAAAAAAAAAAAAAAAAAAAAAAAAAAAAAAAAAAAAAAAAAAAAAAAAAAAAAAAAAAAAAAAAAAAAAAAAAAAAAAAAAAAAAAAAAAAAAAAAAAAAAAAAAAAAAAAAAAAAAAAAAAAAAAAAAAAAAAAAAAAAAAAAAAAAAAAAAAAAAAAAAAAAAAAAAAAAAAAAAAAAAAAAAAAAAAAAAAAAAAAAAAAAAAAAAAAAAAAAAAAAAAAAAAAAAAAAAAAAAAAAAAAAAAAAAAAAAAAAAAAAAAAAAAAAAAAAAAAAAAAAAAAAAAAAAAAAAAAAAAAAAAAAAAAAAAAAAAAAAAAAAAAAAAAAAAAAAAAAAAAAAAAAAAAAAAAAAAAAAAAAAAAAAAAAAAAAAAAAAAAAAAAAAAAAAAAAAAAAAAAAAAAAAAAAAAAAAAAAAAAAAAAAAAAAAAAAAAAAAAAAAAAAAAAAAAAAAAAAAAAAAAAAAAAAAAAAAAAAAAAAAAAAAAAAAAAAAAAAAAAAAAAAAAAAAAAAAAAAAAAAAAAAAAAAAAAAAAAAAAAAAAAAAAAAAAAAAAAAAAAAAAAAAAAAAAAAAAAAAAAAAAAAAAAAAAAAAAAAAAAAAAAAAAAAAAAAAAAAAAAAAAAAAAAAAAAAAAAAAAAAAAAAAAAAAAAAAAAAAAAAAAAAAAAAAAAAAAAAAAAAAAAAAAAAAAAAAAAAAAAAAAAAAAAAAAAAAAAAAAAAAAAAAAAAAAAAAAAAAAAAAAAAAAAAAAAAAAAAAAAAAAAAAAAAAAAAAAAAAAAAAAAAAAAAAAAAAAAAAAAAAAAAAAAAAAAAAAAAAAAAAAAAAAAAAAAAAAAAAAAAAAAAAAAAAAAAAAAAAAAAAAAAAAAAAAAAAAAAAAAAAAAAAAAAAAAAAAAAAAAAAAAAAAAAAAAAAAAAAAAAAAAAAAAAAAAAAAAAAAAAAAAAAAAAAAAAAAAAAAAAAAAAAAAAAAAAAAAAAAAAAAAAAAAAAAAAAAAAAAAAAAAAAAAAAAAAAAAAAAAAAAAAAAAAAAAAAAAAAAAAAAAAAAAAAAAAAAAAAAAAAAAAAAAAAAAAAAAAAAAAAAAAAAAAAAAAAAAAAAAAAAAAAAAAAAAAAAAAAAAAAAAAAAAAAAAAAAAAAAAAAAAAAAAAAAAAAAAAAAAAAAAAAAAAAAAAAAAAAAAAAAAAAAAAAAAAAAAAAAAAAAAAAAAAAAAAAAAAAAAAAAAAAAAAAAAAAAAAAAAAAAAAAAAAAAAAAAAAAAAAAAAAAAAAAAAAAAAAAAAAAAAAAAAAAAAAAAAAAAAAAAAAAAAAAAAAAAAAAAAAAAAAAAAAAAAAAAAAAAAAAAAAAAAAAAAAAAAAAAAAAAAAAAAAAAAAAAAAAAAAAAAAAAAAAAAAAAAAAAAAAAAAAAAAAAAAAAAAAAAAAAAAAAAAAAAAAAAAAAAAAAAAAAAAAAAAAAAAAAAAAAAAAAAAAAAAAAAAAAAAAAAAAAAAAAAAAAAAAAAAAAAAAAAAAAAAAAAAAAAAAAAAAAAAAAAAAAAAAAAAAAAAAAAAAAAAAAAAAAAAAAAAAAAAAAAAAAAAAAAAAAAAAAAAAAAAAAAAAAAAAAAAAAAAAAAAAAAAAAAAAAAAAAAAAAAAAAAAAAAAAAAAAAAAAAAAAAAAAAAAAAAAAAAAAAAAAAAAAAAAAAAAAAAAAAAAAAAAAAAAAAAAAAAAAAAAAAAAAAAAAAAAAAAAAAAAAAAAAAAAAAAAAAAAAAAAAAAAAAAAAAAAAAAAAAAAAAAAAAAAAAAAAAAAAAAAAAAAAAAAAAAAAAAAAAAAAAAAAAAAAAAAAAAAAAAAAAAAAAAAAAAAAAAAAAAAAAAAAAAAAAAAAAAAAAAAAAAAAAAAAAAAAAAAAAAAAAAAAAAAAAAAAAAAAAAAAAAAAAAAAAAAAAAAAAAAAAAAAAAAAAAAAAAAAAAAAAAAAAAAAAAAAAAAAAAAAAAAAAAAAAAAAAAAAAAAAAAAAAAAAAAAAAAAAAAAAAAAAAAAAAAAAAAAAAAAAAAAAAAAAAAAAAAAAAAAAAAAAAAAAAAAAAAAAAAAAAAAAAAAAAAAAAAAAAAAAAAAAAAAAAAAAAAAAAAAAAAAAAAAAAAAAAAAAAAAAAAAAAAAAAAAAAAAAAAAAAAAAAAAAAAAAAAAAAAAAAAAAAAAAAAAAAAAAAAAAAAAAAAAAAAAAAAAAAAAAAAAAAAAAAAAAAAAAAAAAAAAAAAAAAAAAAAAAAAAAAAAAAAAAAAAAAAAAAAAAAAAAAAAAAAAAAAAAAAAAAAAAAAAAAAAAAAAAAAAAAAAAAAAAAAAAAAAAAAAAAAAAAAAAAAAAAAAAAAAAAAAAAAAAAAAAAAAAAAAAAAAAAAAAAAAAAAAAAAAAAAAAAAAAAAAAAAAAAAAAAAAAAAAAAAAAAAAAAAAAAAAAAAAAAAAAAAAAAAAAAAAAAAAAAAAAAAAAAAAAAAAAAAAAAAAPZYQB+zAAa4qMKzC2fuy4JeDOCuTaQ2QltG9GwKtOcbrJPXsOf9L/F/6rGKWeLAN8IQs0QomWapjyjeTo9JSOnZ6YU=</c2pa:manifest></metadata>
<style>
:root{--tx:#24292f;--mu:#8c959f;--gr:#d0d7de;--wl:#6e7781;--ac:#0969da;--go:#1a7f37;--tr:#8250df}
@media (prefers-color-scheme:dark){:root{--tx:#e6edf3;--mu:#7d8590;--gr:#30363d;--wl:#6e7681;--ac:#58a6ff;--go:#3fb950;--tr:#bc8cff}}
text{font-family:ui-monospace,SFMono-Regular,Menlo,Consolas,monospace;fill:var(--tx)}
.m{fill:var(--mu)}
</style>
<text x="24" y="28" font-size="15" font-weight="600">exploration → exploitation</text>
<text x="24" y="44" font-size="11" class="m">an agent learns a policy from its own experience</text>
<line x1="24" y1="52" x2="24" y2="304" stroke="var(--gr)" stroke-width="1"/>
<line x1="60" y1="52" x2="60" y2="304" stroke="var(--gr)" stroke-width="1"/>
<line x1="96" y1="52" x2="96" y2="304" stroke="var(--gr)" stroke-width="1"/>
<line x1="132" y1="52" x2="132" y2="304" stroke="var(--gr)" stroke-width="1"/>
<line x1="168" y1="52" x2="168" y2="304" stroke="var(--gr)" stroke-width="1"/>
<line x1="204" y1="52" x2="204" y2="304" stroke="var(--gr)" stroke-width="1"/>
<line x1="240" y1="52" x2="240" y2="304" stroke="var(--gr)" stroke-width="1"/>
<line x1="276" y1="52" x2="276" y2="304" stroke="var(--gr)" stroke-width="1"/>
<line x1="312" y1="52" x2="312" y2="304" stroke="var(--gr)" stroke-width="1"/>
<line x1="348" y1="52" x2="348" y2="304" stroke="var(--gr)" stroke-width="1"/>
<line x1="384" y1="52" x2="384" y2="304" stroke="var(--gr)" stroke-width="1"/>
<line x1="420" y1="52" x2="420" y2="304" stroke="var(--gr)" stroke-width="1"/>
<line x1="456" y1="52" x2="456" y2="304" stroke="var(--gr)" stroke-width="1"/>
<line x1="24" y1="52" x2="456" y2="52" stroke="var(--gr)" stroke-width="1"/>
<line x1="24" y1="88" x2="456" y2="88" stroke="var(--gr)" stroke-width="1"/>
<line x1="24" y1="124" x2="456" y2="124" stroke="var(--gr)" stroke-width="1"/>
<line x1="24" y1="160" x2="456" y2="160" stroke="var(--gr)" stroke-width="1"/>
<line x1="24" y1="196" x2="456" y2="196" stroke="var(--gr)" stroke-width="1"/>
<line x1="24" y1="232" x2="456" y2="232" stroke="var(--gr)" stroke-width="1"/>
<line x1="24" y1="268" x2="456" y2="268" stroke="var(--gr)" stroke-width="1"/>
<line x1="24" y1="304" x2="456" y2="304" stroke="var(--gr)" stroke-width="1"/>
<rect x="25" y="233" width="34" height="34" rx="4" fill="var(--ac)" opacity="0"><animate attributeName="opacity" dur="31.34s" repeatCount="indefinite" keyTimes="0;0.18666;0.32163;0.43937;0.54563;0.63465;0.72942;0.80696;0.87875;0.97447;1" values="0.000;0.000;0.000;0.000;0.000;0.130;0.130;0.130;0.260;0.260;0.000"/></rect>
<rect x="25" y="269" width="34" height="34" rx="4" fill="var(--ac)" opacity="0"><animate attributeName="opacity" dur="31.34s" repeatCount="indefinite" keyTimes="0;0.18666;0.32163;0.43937;0.54563;0.63465;0.72942;0.80696;0.87875;0.97447;1" values="0.000;0.130;0.260;0.390;0.520;0.650;0.750;0.750;0.750;0.750;0.000"/></rect>
<rect x="61" y="197" width="34" height="34" rx="4" fill="var(--ac)" opacity="0"><animate attributeName="opacity" dur="31.34s" repeatCount="indefinite" keyTimes="0;0.18666;0.32163;0.43937;0.54563;0.63465;0.72942;0.80696;0.87875;0.97447;1" values="0.000;0.130;0.130;0.130;0.130;0.130;0.130;0.130;0.130;0.130;0.000"/></rect>
<rect x="61" y="233" width="34" height="34" rx="4" fill="var(--ac)" opacity="0"><animate attributeName="opacity" dur="31.34s" repeatCount="indefinite" keyTimes="0;0.18666;0.32163;0.43937;0.54563;0.63465;0.72942;0.80696;0.87875;0.97447;1" values="0.000;0.130;0.260;0.260;0.260;0.390;0.390;0.520;0.650;0.650;0.000"/></rect>
<rect x="61" y="269" width="34" height="34" rx="4" fill="var(--ac)" opacity="0"><animate attributeName="opacity" dur="31.34s" repeatCount="indefinite" keyTimes="0;0.18666;0.32163;0.43937;0.54563;0.63465;0.72942;0.80696;0.87875;0.97447;1" values="0.000;0.130;0.260;0.390;0.520;0.520;0.650;0.750;0.750;0.750;0.000"/></rect>
<rect x="97" y="197" width="34" height="34" rx="4" fill="var(--ac)" opacity="0"><animate attributeName="opacity" dur="31.34s" repeatCount="indefinite" keyTimes="0;0.18666;0.32163;0.43937;0.54563;0.63465;0.72942;0.80696;0.87875;0.97447;1" values="0.000;0.130;0.130;0.130;0.130;0.130;0.130;0.130;0.130;0.130;0.000"/></rect>
<rect x="97" y="233" width="34" height="34" rx="4" fill="var(--ac)" opacity="0"><animate attributeName="opacity" dur="31.34s" repeatCount="indefinite" keyTimes="0;0.18666;0.32163;0.43937;0.54563;0.63465;0.72942;0.80696;0.87875;0.97447;1" values="0.000;0.130;0.130;0.260;0.260;0.390;0.520;0.650;0.750;0.750;0.000"/></rect>
<rect x="97" y="269" width="34" height="34" rx="4" fill="var(--ac)" opacity="0"><animate attributeName="opacity" dur="31.34s" repeatCount="indefinite" keyTimes="0;0.18666;0.32163;0.43937;0.54563;0.63465;0.72942;0.80696;0.87875;0.97447;1" values="0.000;0.130;0.260;0.390;0.520;0.520;0.650;0.650;0.650;0.650;0.000"/></rect>
<rect x="133" y="233" width="34" height="34" rx="4" fill="var(--ac)" opacity="0"><animate attributeName="opacity" dur="31.34s" repeatCount="indefinite" keyTimes="0;0.18666;0.32163;0.43937;0.54563;0.63465;0.72942;0.80696;0.87875;0.97447;1" values="0.000;0.130;0.130;0.260;0.260;0.390;0.520;0.650;0.750;0.750;0.000"/></rect>
<rect x="133" y="269" width="34" height="34" rx="4" fill="var(--ac)" opacity="0"><animate attributeName="opacity" dur="31.34s" repeatCount="indefinite" keyTimes="0;0.18666;0.32163;0.43937;0.54563;0.63465;0.72942;0.80696;0.87875;0.97447;1" values="0.000;0.130;0.260;0.260;0.390;0.520;0.520;0.520;0.520;0.520;0.000"/></rect>
<rect x="169" y="53" width="34" height="34" rx="4" fill="var(--ac)" opacity="0"><animate attributeName="opacity" dur="31.34s" repeatCount="indefinite" keyTimes="0;0.18666;0.32163;0.43937;0.54563;0.63465;0.72942;0.80696;0.87875;0.97447;1" values="0.000;0.000;0.130;0.130;0.130;0.130;0.130;0.130;0.130;0.130;0.000"/></rect>
<rect x="169" y="89" width="34" height="34" rx="4" fill="var(--ac)" opacity="0"><animate attributeName="opacity" dur="31.34s" repeatCount="indefinite" keyTimes="0;0.18666;0.32163;0.43937;0.54563;0.63465;0.72942;0.80696;0.87875;0.97447;1" values="0.000;0.130;0.260;0.390;0.390;0.390;0.390;0.390;0.390;0.390;0.000"/></rect>
<rect x="169" y="125" width="34" height="34" rx="4" fill="var(--ac)" opacity="0"><animate attributeName="opacity" dur="31.34s" repeatCount="indefinite" keyTimes="0;0.18666;0.32163;0.43937;0.54563;0.63465;0.72942;0.80696;0.87875;0.97447;1" values="0.000;0.130;0.130;0.130;0.130;0.130;0.130;0.260;0.260;0.260;0.000"/></rect>
<rect x="169" y="161" width="34" height="34" rx="4" fill="var(--ac)" opacity="0"><animate attributeName="opacity" dur="31.34s" repeatCount="indefinite" keyTimes="0;0.18666;0.32163;0.43937;0.54563;0.63465;0.72942;0.80696;0.87875;0.97447;1" values="0.000;0.130;0.260;0.260;0.260;0.260;0.260;0.390;0.390;0.390;0.000"/></rect>
<rect x="169" y="197" width="34" height="34" rx="4" fill="var(--ac)" opacity="0"><animate attributeName="opacity" dur="31.34s" repeatCount="indefinite" keyTimes="0;0.18666;0.32163;0.43937;0.54563;0.63465;0.72942;0.80696;0.87875;0.97447;1" values="0.000;0.130;0.260;0.390;0.520;0.650;0.650;0.750;0.750;0.750;0.000"/></rect>
<rect x="169" y="233" width="34" height="34" rx="4" fill="var(--ac)" opacity="0"><animate attributeName="opacity" dur="31.34s" repeatCount="indefinite" keyTimes="0;0.18666;0.32163;0.43937;0.54563;0.63465;0.72942;0.80696;0.87875;0.97447;1" values="0.000;0.130;0.260;0.390;0.520;0.650;0.750;0.750;0.750;0.750;0.000"/></rect>
<rect x="169" y="269" width="34" height="34" rx="4" fill="var(--ac)" opacity="0"><animate attributeName="opacity" dur="31.34s" repeatCount="indefinite" keyTimes="0;0.18666;0.32163;0.43937;0.54563;0.63465;0.72942;0.80696;0.87875;0.97447;1" values="0.000;0.130;0.260;0.260;0.390;0.520;0.520;0.520;0.520;0.520;0.000"/></rect>
<rect x="205" y="53" width="34" height="34" rx="4" fill="var(--ac)" opacity="0"><animate attributeName="opacity" dur="31.34s" repeatCount="indefinite" keyTimes="0;0.18666;0.32163;0.43937;0.54563;0.63465;0.72942;0.80696;0.87875;0.97447;1" values="0.000;0.000;0.130;0.130;0.130;0.130;0.130;0.130;0.130;0.130;0.000"/></rect>
<rect x="205" y="89" width="34" height="34" rx="4" fill="var(--ac)" opacity="0"><animate attributeName="opacity" dur="31.34s" repeatCount="indefinite" keyTimes="0;0.18666;0.32163;0.43937;0.54563;0.63465;0.72942;0.80696;0.87875;0.97447;1" values="0.000;0.130;0.260;0.390;0.520;0.650;0.750;0.750;0.750;0.750;0.000"/></rect>
<rect x="205" y="125" width="34" height="34" rx="4" fill="var(--ac)" opacity="0"><animate attributeName="opacity" dur="31.34s" repeatCount="indefinite" keyTimes="0;0.18666;0.32163;0.43937;0.54563;0.63465;0.72942;0.80696;0.87875;0.97447;1" values="0.000;0.000;0.130;0.260;0.390;0.520;0.650;0.750;0.750;0.750;0.000"/></rect>
<rect x="205" y="161" width="34" height="34" rx="4" fill="var(--ac)" opacity="0"><animate attributeName="opacity" dur="31.34s" repeatCount="indefinite" keyTimes="0;0.18666;0.32163;0.43937;0.54563;0.63465;0.72942;0.80696;0.87875;0.97447;1" values="0.000;0.000;0.130;0.260;0.390;0.520;0.650;0.650;0.750;0.750;0.000"/></rect>
<rect x="205" y="197" width="34" height="34" rx="4" fill="var(--ac)" opacity="0"><animate attributeName="opacity" dur="31.34s" repeatCount="indefinite" keyTimes="0;0.18666;0.32163;0.43937;0.54563;0.63465;0.72942;0.80696;0.87875;0.97447;1" values="0.000;0.000;0.130;0.260;0.390;0.520;0.650;0.650;0.750;0.750;0.000"/></rect>
<rect x="205" y="233" width="34" height="34" rx="4" fill="var(--ac)" opacity="0"><animate attributeName="opacity" dur="31.34s" repeatCount="indefinite" keyTimes="0;0.18666;0.32163;0.43937;0.54563;0.63465;0.72942;0.80696;0.87875;0.97447;1" values="0.000;0.000;0.130;0.260;0.260;0.260;0.390;0.390;0.390;0.390;0.000"/></rect>
<rect x="205" y="269" width="34" height="34" rx="4" fill="var(--ac)" opacity="0"><animate attributeName="opacity" dur="31.34s" repeatCount="indefinite" keyTimes="0;0.18666;0.32163;0.43937;0.54563;0.63465;0.72942;0.80696;0.87875;0.97447;1" values="0.000;0.000;0.130;0.130;0.130;0.130;0.130;0.130;0.130;0.130;0.000"/></rect>
<rect x="241" y="53" width="34" height="34" rx="4" fill="var(--ac)" opacity="0"><animate attributeName="opacity" dur="31.34s" repeatCount="indefinite" keyTimes="0;0.18666;0.32163;0.43937;0.54563;0.63465;0.72942;0.80696;0.87875;0.97447;1" values="0.000;0.000;0.130;0.130;0.130;0.130;0.130;0.130;0.130;0.130;0.000"/></rect>
<rect x="241" y="89" width="34" height="34" rx="4" fill="var(--ac)" opacity="0"><animate attributeName="opacity" dur="31.34s" repeatCount="indefinite" keyTimes="0;0.18666;0.32163;0.43937;0.54563;0.63465;0.72942;0.80696;0.87875;0.97447;1" values="0.000;0.130;0.130;0.260;0.390;0.520;0.650;0.750;0.750;0.750;0.000"/></rect>
<rect x="277" y="53" width="34" height="34" rx="4" fill="var(--ac)" opacity="0"><animate attributeName="opacity" dur="31.34s" repeatCount="indefinite" keyTimes="0;0.18666;0.32163;0.43937;0.54563;0.63465;0.72942;0.80696;0.87875;0.97447;1" values="0.000;0.130;0.260;0.260;0.260;0.260;0.260;0.260;0.260;0.260;0.000"/></rect>
<rect x="277" y="89" width="34" height="34" rx="4" fill="var(--ac)" opacity="0"><animate attributeName="opacity" dur="31.34s" repeatCount="indefinite" keyTimes="0;0.18666;0.32163;0.43937;0.54563;0.63465;0.72942;0.80696;0.87875;0.97447;1" values="0.000;0.130;0.260;0.390;0.520;0.650;0.750;0.750;0.750;0.750;0.000"/></rect>
<rect x="277" y="125" width="34" height="34" rx="4" fill="var(--ac)" opacity="0"><animate attributeName="opacity" dur="31.34s" repeatCount="indefinite" keyTimes="0;0.18666;0.32163;0.43937;0.54563;0.63465;0.72942;0.80696;0.87875;0.97447;1" values="0.000;0.130;0.260;0.390;0.520;0.520;0.650;0.650;0.650;0.650;0.000"/></rect>
<rect x="277" y="161" width="34" height="34" rx="4" fill="var(--ac)" opacity="0"><animate attributeName="opacity" dur="31.34s" repeatCount="indefinite" keyTimes="0;0.18666;0.32163;0.43937;0.54563;0.63465;0.72942;0.80696;0.87875;0.97447;1" values="0.000;0.130;0.260;0.260;0.390;0.390;0.390;0.390;0.390;0.390;0.000"/></rect>
<rect x="277" y="197" width="34" height="34" rx="4" fill="var(--ac)" opacity="0"><animate attributeName="opacity" dur="31.34s" repeatCount="indefinite" keyTimes="0;0.18666;0.32163;0.43937;0.54563;0.63465;0.72942;0.80696;0.87875;0.97447;1" values="0.000;0.130;0.260;0.260;0.260;0.260;0.260;0.260;0.260;0.260;0.000"/></rect>
<rect x="277" y="233" width="34" height="34" rx="4" fill="var(--ac)" opacity="0"><animate attributeName="opacity" dur="31.34s" repeatCount="indefinite" keyTimes="0;0.18666;0.32163;0.43937;0.54563;0.63465;0.72942;0.80696;0.87875;0.97447;1" values="0.000;0.130;0.260;0.260;0.390;0.390;0.390;0.390;0.390;0.390;0.000"/></rect>
<rect x="277" y="269" width="34" height="34" rx="4" fill="var(--ac)" opacity="0"><animate attributeName="opacity" dur="31.34s" repeatCount="indefinite" keyTimes="0;0.18666;0.32163;0.43937;0.54563;0.63465;0.72942;0.80696;0.87875;0.97447;1" values="0.000;0.130;0.260;0.260;0.390;0.390;0.390;0.390;0.390;0.390;0.000"/></rect>
<rect x="313" y="53" width="34" height="34" rx="4" fill="var(--ac)" opacity="0"><animate attributeName="opacity" dur="31.34s" repeatCount="indefinite" keyTimes="0;0.18666;0.32163;0.43937;0.54563;0.63465;0.72942;0.80696;0.87875;0.97447;1" values="0.000;0.130;0.130;0.130;0.130;0.130;0.130;0.130;0.130;0.130;0.000"/></rect>
<rect x="313" y="89" width="34" height="34" rx="4" fill="var(--ac)" opacity="0"><animate attributeName="opacity" dur="31.34s" repeatCount="indefinite" keyTimes="0;0.18666;0.32163;0.43937;0.54563;0.63465;0.72942;0.80696;0.87875;0.97447;1" values="0.000;0.130;0.130;0.260;0.260;0.390;0.520;0.650;0.750;0.750;0.000"/></rect>
<rect x="313" y="125" width="34" height="34" rx="4" fill="var(--ac)" opacity="0"><animate attributeName="opacity" dur="31.34s" repeatCount="indefinite" keyTimes="0;0.18666;0.32163;0.43937;0.54563;0.63465;0.72942;0.80696;0.87875;0.97447;1" values="0.000;0.130;0.130;0.260;0.390;0.520;0.650;0.750;0.750;0.750;0.000"/></rect>
<rect x="313" y="161" width="34" height="34" rx="4" fill="var(--ac)" opacity="0"><animate attributeName="opacity" dur="31.34s" repeatCount="indefinite" keyTimes="0;0.18666;0.32163;0.43937;0.54563;0.63465;0.72942;0.80696;0.87875;0.97447;1" values="0.000;0.130;0.130;0.260;0.390;0.520;0.650;0.750;0.750;0.750;0.000"/></rect>
<rect x="313" y="197" width="34" height="34" rx="4" fill="var(--ac)" opacity="0"><animate attributeName="opacity" dur="31.34s" repeatCount="indefinite" keyTimes="0;0.18666;0.32163;0.43937;0.54563;0.63465;0.72942;0.80696;0.87875;0.97447;1" values="0.000;0.130;0.130;0.260;0.390;0.520;0.650;0.750;0.750;0.750;0.000"/></rect>
<rect x="313" y="233" width="34" height="34" rx="4" fill="var(--ac)" opacity="0"><animate attributeName="opacity" dur="31.34s" repeatCount="indefinite" keyTimes="0;0.18666;0.32163;0.43937;0.54563;0.63465;0.72942;0.80696;0.87875;0.97447;1" values="0.000;0.130;0.260;0.390;0.520;0.650;0.750;0.750;0.750;0.750;0.000"/></rect>
<rect x="313" y="269" width="34" height="34" rx="4" fill="var(--ac)" opacity="0"><animate attributeName="opacity" dur="31.34s" repeatCount="indefinite" keyTimes="0;0.18666;0.32163;0.43937;0.54563;0.63465;0.72942;0.80696;0.87875;0.97447;1" values="0.000;0.130;0.260;0.260;0.390;0.390;0.390;0.390;0.390;0.390;0.000"/></rect>
<rect x="349" y="233" width="34" height="34" rx="4" fill="var(--ac)" opacity="0"><animate attributeName="opacity" dur="31.34s" repeatCount="indefinite" keyTimes="0;0.18666;0.32163;0.43937;0.54563;0.63465;0.72942;0.80696;0.87875;0.97447;1" values="0.000;0.000;0.000;0.130;0.260;0.390;0.520;0.650;0.750;0.750;0.000"/></rect>
<rect x="349" y="269" width="34" height="34" rx="4" fill="var(--ac)" opacity="0"><animate attributeName="opacity" dur="31.34s" repeatCount="indefinite" keyTimes="0;0.18666;0.32163;0.43937;0.54563;0.63465;0.72942;0.80696;0.87875;0.97447;1" values="0.000;0.130;0.260;0.260;0.390;0.390;0.390;0.390;0.390;0.390;0.000"/></rect>
<rect x="385" y="53" width="34" height="34" rx="4" fill="var(--ac)" opacity="0"><animate attributeName="opacity" dur="31.34s" repeatCount="indefinite" keyTimes="0;0.18666;0.32163;0.43937;0.54563;0.63465;0.72942;0.80696;0.87875;0.97447;1" values="0.000;0.130;0.260;0.260;0.260;0.260;0.260;0.260;0.260;0.260;0.000"/></rect>
<rect x="385" y="89" width="34" height="34" rx="4" fill="var(--ac)" opacity="0"><animate attributeName="opacity" dur="31.34s" repeatCount="indefinite" keyTimes="0;0.18666;0.32163;0.43937;0.54563;0.63465;0.72942;0.80696;0.87875;0.97447;1" values="0.000;0.130;0.260;0.260;0.390;0.390;0.390;0.520;0.520;0.520;0.000"/></rect>
<rect x="385" y="125" width="34" height="34" rx="4" fill="var(--ac)" opacity="0"><animate attributeName="opacity" dur="31.34s" repeatCount="indefinite" keyTimes="0;0.18666;0.32163;0.43937;0.54563;0.63465;0.72942;0.80696;0.87875;0.97447;1" values="0.000;0.000;0.000;0.000;0.130;0.130;0.130;0.260;0.260;0.260;0.000"/></rect>
<rect x="385" y="161" width="34" height="34" rx="4" fill="var(--ac)" opacity="0"><animate attributeName="opacity" dur="31.34s" repeatCount="indefinite" keyTimes="0;0.18666;0.32163;0.43937;0.54563;0.63465;0.72942;0.80696;0.87875;0.97447;1" values="0.000;0.000;0.130;0.130;0.130;0.130;0.260;0.390;0.390;0.390;0.000"/></rect>
<rect x="385" y="197" width="34" height="34" rx="4" fill="var(--ac)" opacity="0"><animate attributeName="opacity" dur="31.34s" repeatCount="indefinite" keyTimes="0;0.18666;0.32163;0.43937;0.54563;0.63465;0.72942;0.80696;0.87875;0.97447;1" values="0.000;0.130;0.260;0.390;0.520;0.650;0.750;0.750;0.750;0.750;0.000"/></rect>
<rect x="385" y="233" width="34" height="34" rx="4" fill="var(--ac)" opacity="0"><animate attributeName="opacity" dur="31.34s" repeatCount="indefinite" keyTimes="0;0.18666;0.32163;0.43937;0.54563;0.63465;0.72942;0.80696;0.87875;0.97447;1" values="0.000;0.130;0.260;0.390;0.520;0.650;0.750;0.750;0.750;0.750;0.000"/></rect>
<rect x="385" y="269" width="34" height="34" rx="4" fill="var(--ac)" opacity="0"><animate attributeName="opacity" dur="31.34s" repeatCount="indefinite" keyTimes="0;0.18666;0.32163;0.43937;0.54563;0.63465;0.72942;0.80696;0.87875;0.97447;1" values="0.000;0.130;0.260;0.260;0.260;0.260;0.260;0.260;0.260;0.260;0.000"/></rect>
<rect x="421" y="53" width="34" height="34" rx="4" fill="var(--ac)" opacity="0"><animate attributeName="opacity" dur="31.34s" repeatCount="indefinite" keyTimes="0;0.18666;0.32163;0.43937;0.54563;0.63465;0.72942;0.80696;0.87875;0.97447;1" values="0.000;0.130;0.260;0.390;0.520;0.650;0.750;0.750;0.750;0.750;0.000"/></rect>
<rect x="421" y="89" width="34" height="34" rx="4" fill="var(--ac)" opacity="0"><animate attributeName="opacity" dur="31.34s" repeatCount="indefinite" keyTimes="0;0.18666;0.32163;0.43937;0.54563;0.63465;0.72942;0.80696;0.87875;0.97447;1" values="0.000;0.130;0.260;0.390;0.520;0.650;0.750;0.750;0.750;0.750;0.000"/></rect>
<rect x="421" y="125" width="34" height="34" rx="4" fill="var(--ac)" opacity="0"><animate attributeName="opacity" dur="31.34s" repeatCount="indefinite" keyTimes="0;0.18666;0.32163;0.43937;0.54563;0.63465;0.72942;0.80696;0.87875;0.97447;1" values="0.000;0.130;0.260;0.390;0.520;0.650;0.750;0.750;0.750;0.750;0.000"/></rect>
<rect x="421" y="161" width="34" height="34" rx="4" fill="var(--ac)" opacity="0"><animate attributeName="opacity" dur="31.34s" repeatCount="indefinite" keyTimes="0;0.18666;0.32163;0.43937;0.54563;0.63465;0.72942;0.80696;0.87875;0.97447;1" values="0.000;0.130;0.260;0.390;0.520;0.650;0.750;0.750;0.750;0.750;0.000"/></rect>
<rect x="421" y="197" width="34" height="34" rx="4" fill="var(--ac)" opacity="0"><animate attributeName="opacity" dur="31.34s" repeatCount="indefinite" keyTimes="0;0.18666;0.32163;0.43937;0.54563;0.63465;0.72942;0.80696;0.87875;0.97447;1" values="0.000;0.130;0.130;0.260;0.390;0.520;0.650;0.650;0.750;0.750;0.000"/></rect>
<rect x="421" y="233" width="34" height="34" rx="4" fill="var(--ac)" opacity="0"><animate attributeName="opacity" dur="31.34s" repeatCount="indefinite" keyTimes="0;0.18666;0.32163;0.43937;0.54563;0.63465;0.72942;0.80696;0.87875;0.97447;1" values="0.000;0.130;0.130;0.260;0.260;0.260;0.260;0.260;0.390;0.390;0.000"/></rect>
<rect x="133" y="89" width="34" height="34" rx="4" fill="var(--wl)" opacity="0.55"/>
<rect x="133" y="125" width="34" height="34" rx="4" fill="var(--wl)" opacity="0.55"/>
<rect x="133" y="161" width="34" height="34" rx="4" fill="var(--wl)" opacity="0.55"/>
<rect x="133" y="197" width="34" height="34" rx="4" fill="var(--wl)" opacity="0.55"/>
<rect x="241" y="125" width="34" height="34" rx="4" fill="var(--wl)" opacity="0.55"/>
<rect x="241" y="161" width="34" height="34" rx="4" fill="var(--wl)" opacity="0.55"/>
<rect x="241" y="197" width="34" height="34" rx="4" fill="var(--wl)" opacity="0.55"/>
<rect x="241" y="233" width="34" height="34" rx="4" fill="var(--wl)" opacity="0.55"/>
<rect x="241" y="269" width="34" height="34" rx="4" fill="var(--wl)" opacity="0.55"/>
<rect x="349" y="53" width="34" height="34" rx="4" fill="var(--wl)" opacity="0.55"/>
<rect x="349" y="89" width="34" height="34" rx="4" fill="var(--wl)" opacity="0.55"/>
<rect x="349" y="125" width="34" height="34" rx="4" fill="var(--wl)" opacity="0.55"/>
<rect x="349" y="161" width="34" height="34" rx="4" fill="var(--wl)" opacity="0.55"/>
<rect x="349" y="197" width="34" height="34" rx="4" fill="var(--wl)" opacity="0.55"/>
<text x="42.0" y="290.0" font-size="11" text-anchor="middle" class="m">S</text>
<circle cx="438.0" cy="70.0" r="11" fill="none" stroke="var(--go)" stroke-width="2"><animate attributeName="r" values="9;14;9" dur="1.6s" repeatCount="indefinite"/><animate attributeName="opacity" values="1;0.25;1" dur="1.6s" repeatCount="indefinite"/></circle>
<circle cx="438.0" cy="70.0" r="5" fill="var(--go)"/>
<polyline points="42.0,286.0 78.0,286.0 78.0,250.0 78.0,214.0 114.0,214.0 114.0,250.0 114.0,286.0 114.0,250.0 150.0,250.0 150.0,286.0 186.0,286.0 186.0,250.0 186.0,214.0 186.0,178.0 186.0,142.0 186.0,106.0 222.0,106.0 258.0,106.0 294.0,106.0 330.0,106.0 294.0,106.0 294.0,70.0 330.0,70.0 330.0,106.0 294.0,106.0 330.0,106.0 330.0,142.0 294.0,142.0 294.0,106.0 294.0,142.0 294.0,106.0 294.0,142.0 330.0,142.0 330.0,106.0 330.0,142.0 330.0,178.0 294.0,178.0 294.0,142.0 330.0,142.0 330.0,178.0 330.0,214.0 330.0,250.0 294.0,250.0 294.0,214.0 294.0,250.0 294.0,286.0 330.0,286.0 294.0,286.0 330.0,286.0 294.0,286.0 330.0,286.0 366.0,286.0 402.0,286.0 402.0,250.0 402.0,286.0 402.0,250.0 438.0,250.0 438.0,214.0 402.0,214.0 438.0,214.0 438.0,178.0 438.0,142.0 438.0,106.0 402.0,106.0 402.0,70.0 438.0,70.0" fill="none" stroke="var(--tr)" stroke-width="1.6" stroke-linejoin="round" stroke-linecap="round" stroke-dasharray="2340" stroke-dashoffset="2340" opacity="0"><animate attributeName="stroke-dashoffset" dur="31.34s" repeatCount="indefinite" keyTimes="0;0.0;0.18666;0.97447;1" values="2340;2340;0;0;0"/><animate attributeName="opacity" dur="31.34s" repeatCount="indefinite" keyTimes="0;0.0;0.18666;0.97447;1" values="0;0.9;0.22;0.22;0"/></polyline>
<polyline points="42.0,286.0 78.0,286.0 78.0,250.0 78.0,286.0 114.0,286.0 150.0,286.0 186.0,286.0 186.0,250.0 186.0,214.0 186.0,178.0 186.0,214.0 222.0,214.0 222.0,250.0 222.0,286.0 222.0,250.0 222.0,214.0 222.0,178.0 222.0,142.0 222.0,106.0 186.0,106.0 222.0,106.0 222.0,70.0 186.0,70.0 222.0,70.0 258.0,70.0 294.0,70.0 294.0,106.0 294.0,142.0 294.0,178.0 294.0,214.0 294.0,178.0 294.0,214.0 294.0,250.0 294.0,286.0 330.0,286.0 330.0,250.0 330.0,286.0 366.0,286.0 402.0,286.0 402.0,250.0 402.0,214.0 402.0,178.0 438.0,178.0 438.0,142.0 438.0,106.0 402.0,106.0 402.0,70.0 438.0,70.0" fill="none" stroke="var(--tr)" stroke-width="1.6" stroke-linejoin="round" stroke-linecap="round" stroke-dasharray="1692" stroke-dashoffset="1692" opacity="0"><animate attributeName="stroke-dashoffset" dur="31.34s" repeatCount="indefinite" keyTimes="0;0.18666;0.32163;0.97447;1" values="1692;1692;0;0;0"/><animate attributeName="opacity" dur="31.34s" repeatCount="indefinite" keyTimes="0;0.18666;0.32163;0.97447;1" values="0;0.9;0.22;0.22;0"/></polyline>
<polyline points="42.0,286.0 78.0,286.0 114.0,286.0 114.0,250.0 150.0,250.0 186.0,250.0 186.0,214.0 222.0,214.0 186.0,214.0 222.0,214.0 222.0,250.0 222.0,214.0 222.0,178.0 222.0,142.0 222.0,106.0 186.0,106.0 222.0,106.0 258.0,106.0 294.0,106.0 330.0,106.0 330.0,142.0 294.0,142.0 294.0,106.0 294.0,142.0 330.0,142.0 330.0,178.0 330.0,214.0 330.0,250.0 366.0,250.0 402.0,250.0 402.0,214.0 438.0,214.0 438.0,178.0 438.0,214.0 438.0,250.0 438.0,214.0 438.0,178.0 438.0,142.0 438.0,178.0 438.0,142.0 438.0,106.0 438.0,70.0" fill="none" stroke="var(--tr)" stroke-width="1.6" stroke-linejoin="round" stroke-linecap="round" stroke-dasharray="1476" stroke-dashoffset="1476" opacity="0"><animate attributeName="stroke-dashoffset" dur="31.34s" repeatCount="indefinite" keyTimes="0;0.32163;0.43937;0.97447;1" values="1476;1476;0;0;0"/><animate attributeName="opacity" dur="31.34s" repeatCount="indefinite" keyTimes="0;0.32163;0.43937;0.97447;1" values="0;0.9;0.22;0.22;0"/></polyline>
<polyline points="42.0,286.0 78.0,286.0 114.0,286.0 150.0,286.0 186.0,286.0 186.0,250.0 186.0,214.0 222.0,214.0 222.0,178.0 222.0,142.0 222.0,106.0 258.0,106.0 294.0,106.0 294.0,142.0 294.0,178.0 330.0,178.0 330.0,142.0 330.0,178.0 330.0,142.0 330.0,178.0 330.0,214.0 330.0,250.0 330.0,286.0 294.0,286.0 294.0,250.0 330.0,250.0 366.0,250.0 366.0,286.0 366.0,250.0 402.0,250.0 402.0,214.0 438.0,214.0 438.0,178.0 438.0,142.0 402.0,142.0 402.0,106.0 438.0,106.0 438.0,70.0" fill="none" stroke="var(--tr)" stroke-width="1.6" stroke-linejoin="round" stroke-linecap="round" stroke-dasharray="1332" stroke-dashoffset="1332" opacity="0"><animate attributeName="stroke-dashoffset" dur="31.34s" repeatCount="indefinite" keyTimes="0;0.43937;0.54563;0.97447;1" values="1332;1332;0;0;0"/><animate attributeName="opacity" dur="31.34s" repeatCount="indefinite" keyTimes="0;0.43937;0.54563;0.97447;1" values="0;0.9;0.22;0.22;0"/></polyline>
<polyline points="42.0,286.0 42.0,250.0 78.0,250.0 114.0,250.0 78.0,250.0 114.0,250.0 150.0,250.0 150.0,286.0 186.0,286.0 186.0,250.0 186.0,214.0 222.0,214.0 222.0,178.0 222.0,142.0 222.0,178.0 222.0,142.0 222.0,106.0 258.0,106.0 294.0,106.0 330.0,106.0 330.0,142.0 330.0,178.0 330.0,214.0 330.0,250.0 366.0,250.0 402.0,250.0 402.0,214.0 438.0,214.0 438.0,178.0 438.0,142.0 438.0,106.0 438.0,70.0" fill="none" stroke="var(--tr)" stroke-width="1.6" stroke-linejoin="round" stroke-linecap="round" stroke-dasharray="1116" stroke-dashoffset="1116" opacity="0"><animate attributeName="stroke-dashoffset" dur="31.34s" repeatCount="indefinite" keyTimes="0;0.54563;0.63465;0.97447;1" values="1116;1116;0;0;0"/><animate attributeName="opacity" dur="31.34s" repeatCount="indefinite" keyTimes="0;0.54563;0.63465;0.97447;1" values="0;0.9;0.22;0.22;0"/></polyline>
<polyline points="42.0,286.0 78.0,286.0 114.0,286.0 114.0,250.0 150.0,250.0 186.0,250.0 150.0,250.0 186.0,250.0 222.0,250.0 222.0,214.0 222.0,178.0 222.0,142.0 222.0,106.0 258.0,106.0 294.0,106.0 294.0,142.0 330.0,142.0 330.0,106.0 330.0,142.0 330.0,178.0 330.0,214.0 330.0,250.0 366.0,250.0 330.0,250.0 366.0,250.0 402.0,250.0 402.0,214.0 402.0,178.0 402.0,214.0 438.0,214.0 438.0,178.0 438.0,142.0 438.0,106.0 438.0,70.0" fill="none" stroke="var(--tr)" stroke-width="1.6" stroke-linejoin="round" stroke-linecap="round" stroke-dasharray="1188" stroke-dashoffset="1188" opacity="0"><animate attributeName="stroke-dashoffset" dur="31.34s" repeatCount="indefinite" keyTimes="0;0.63465;0.72942;0.97447;1" values="1188;1188;0;0;0"/><animate attributeName="opacity" dur="31.34s" repeatCount="indefinite" keyTimes="0;0.63465;0.72942;0.97447;1" values="0;0.9;0.22;0.22;0"/></polyline>
<polyline points="42.0,286.0 78.0,286.0 78.0,250.0 114.0,250.0 150.0,250.0 186.0,250.0 186.0,214.0 186.0,178.0 186.0,142.0 222.0,142.0 222.0,106.0 258.0,106.0 294.0,106.0 330.0,106.0 330.0,142.0 330.0,106.0 330.0,142.0 330.0,178.0 330.0,214.0 330.0,250.0 366.0,250.0 402.0,250.0 402.0,214.0 402.0,178.0 402.0,142.0 402.0,106.0 438.0,106.0 438.0,70.0" fill="none" stroke="var(--tr)" stroke-width="1.6" stroke-linejoin="round" stroke-linecap="round" stroke-dasharray="972" stroke-dashoffset="972" opacity="0"><animate attributeName="stroke-dashoffset" dur="31.34s" repeatCount="indefinite" keyTimes="0;0.72942;0.80696;0.97447;1" values="972;972;0;0;0"/><animate attributeName="opacity" dur="31.34s" repeatCount="indefinite" keyTimes="0;0.72942;0.80696;0.97447;1" values="0;0.9;0.22;0.22;0"/></polyline>
<polyline points="42.0,286.0 42.0,250.0 78.0,250.0 114.0,250.0 150.0,250.0 186.0,250.0 186.0,214.0 222.0,214.0 222.0,178.0 222.0,142.0 222.0,106.0 258.0,106.0 294.0,106.0 330.0,106.0 330.0,142.0 330.0,178.0 330.0,214.0 330.0,250.0 366.0,250.0 402.0,250.0 438.0,250.0 438.0,214.0 438.0,178.0 438.0,142.0 438.0,106.0 438.0,70.0" fill="none" stroke="var(--go)" stroke-width="3.2" stroke-linejoin="round" stroke-linecap="round" stroke-dasharray="900" stroke-dashoffset="900" opacity="0"><animate attributeName="stroke-dashoffset" dur="31.34s" repeatCount="indefinite" keyTimes="0;0.80696;0.87875;0.97447;1" values="900;900;0;0;0"/><animate attributeName="opacity" dur="31.34s" repeatCount="indefinite" keyTimes="0;0.80696;0.87875;0.97447;1" values="0;0.9;0.95;0.95;0"/></polyline>
<circle r="7" fill="var(--ac)" stroke="var(--tx)" stroke-width="1.5"><animateMotion dur="31.34s" repeatCount="indefinite" calcMode="linear" keyPoints="0;1;1" keyTimes="0;0.87875;1" path="M42.0,286.0 L78.0,286.0 L78.0,250.0 L78.0,214.0 L114.0,214.0 L114.0,250.0 L114.0,286.0 L114.0,250.0 L150.0,250.0 L150.0,286.0 L186.0,286.0 L186.0,250.0 L186.0,214.0 L186.0,178.0 L186.0,142.0 L186.0,106.0 L222.0,106.0 L258.0,106.0 L294.0,106.0 L330.0,106.0 L294.0,106.0 L294.0,70.0 L330.0,70.0 L330.0,106.0 L294.0,106.0 L330.0,106.0 L330.0,142.0 L294.0,142.0 L294.0,106.0 L294.0,142.0 L294.0,106.0 L294.0,142.0 L330.0,142.0 L330.0,106.0 L330.0,142.0 L330.0,178.0 L294.0,178.0 L294.0,142.0 L330.0,142.0 L330.0,178.0 L330.0,214.0 L330.0,250.0 L294.0,250.0 L294.0,214.0 L294.0,250.0 L294.0,286.0 L330.0,286.0 L294.0,286.0 L330.0,286.0 L294.0,286.0 L330.0,286.0 L366.0,286.0 L402.0,286.0 L402.0,250.0 L402.0,286.0 L402.0,250.0 L438.0,250.0 L438.0,214.0 L402.0,214.0 L438.0,214.0 L438.0,178.0 L438.0,142.0 L438.0,106.0 L402.0,106.0 L402.0,70.0 L438.0,70.0 M42.0,286.0 L78.0,286.0 L78.0,250.0 L78.0,286.0 L114.0,286.0 L150.0,286.0 L186.0,286.0 L186.0,250.0 L186.0,214.0 L186.0,178.0 L186.0,214.0 L222.0,214.0 L222.0,250.0 L222.0,286.0 L222.0,250.0 L222.0,214.0 L222.0,178.0 L222.0,142.0 L222.0,106.0 L186.0,106.0 L222.0,106.0 L222.0,70.0 L186.0,70.0 L222.0,70.0 L258.0,70.0 L294.0,70.0 L294.0,106.0 L294.0,142.0 L294.0,178.0 L294.0,214.0 L294.0,178.0 L294.0,214.0 L294.0,250.0 L294.0,286.0 L330.0,286.0 L330.0,250.0 L330.0,286.0 L366.0,286.0 L402.0,286.0 L402.0,250.0 L402.0,214.0 L402.0,178.0 L438.0,178.0 L438.0,142.0 L438.0,106.0 L402.0,106.0 L402.0,70.0 L438.0,70.0 M42.0,286.0 L78.0,286.0 L114.0,286.0 L114.0,250.0 L150.0,250.0 L186.0,250.0 L186.0,214.0 L222.0,214.0 L186.0,214.0 L222.0,214.0 L222.0,250.0 L222.0,214.0 L222.0,178.0 L222.0,142.0 L222.0,106.0 L186.0,106.0 L222.0,106.0 L258.0,106.0 L294.0,106.0 L330.0,106.0 L330.0,142.0 L294.0,142.0 L294.0,106.0 L294.0,142.0 L330.0,142.0 L330.0,178.0 L330.0,214.0 L330.0,250.0 L366.0,250.0 L402.0,250.0 L402.0,214.0 L438.0,214.0 L438.0,178.0 L438.0,214.0 L438.0,250.0 L438.0,214.0 L438.0,178.0 L438.0,142.0 L438.0,178.0 L438.0,142.0 L438.0,106.0 L438.0,70.0 M42.0,286.0 L78.0,286.0 L114.0,286.0 L150.0,286.0 L186.0,286.0 L186.0,250.0 L186.0,214.0 L222.0,214.0 L222.0,178.0 L222.0,142.0 L222.0,106.0 L258.0,106.0 L294.0,106.0 L294.0,142.0 L294.0,178.0 L330.0,178.0 L330.0,142.0 L330.0,178.0 L330.0,142.0 L330.0,178.0 L330.0,214.0 L330.0,250.0 L330.0,286.0 L294.0,286.0 L294.0,250.0 L330.0,250.0 L366.0,250.0 L366.0,286.0 L366.0,250.0 L402.0,250.0 L402.0,214.0 L438.0,214.0 L438.0,178.0 L438.0,142.0 L402.0,142.0 L402.0,106.0 L438.0,106.0 L438.0,70.0 M42.0,286.0 L42.0,250.0 L78.0,250.0 L114.0,250.0 L78.0,250.0 L114.0,250.0 L150.0,250.0 L150.0,286.0 L186.0,286.0 L186.0,250.0 L186.0,214.0 L222.0,214.0 L222.0,178.0 L222.0,142.0 L222.0,178.0 L222.0,142.0 L222.0,106.0 L258.0,106.0 L294.0,106.0 L330.0,106.0 L330.0,142.0 L330.0,178.0 L330.0,214.0 L330.0,250.0 L366.0,250.0 L402.0,250.0 L402.0,214.0 L438.0,214.0 L438.0,178.0 L438.0,142.0 L438.0,106.0 L438.0,70.0 M42.0,286.0 L78.0,286.0 L114.0,286.0 L114.0,250.0 L150.0,250.0 L186.0,250.0 L150.0,250.0 L186.0,250.0 L222.0,250.0 L222.0,214.0 L222.0,178.0 L222.0,142.0 L222.0,106.0 L258.0,106.0 L294.0,106.0 L294.0,142.0 L330.0,142.0 L330.0,106.0 L330.0,142.0 L330.0,178.0 L330.0,214.0 L330.0,250.0 L366.0,250.0 L330.0,250.0 L366.0,250.0 L402.0,250.0 L402.0,214.0 L402.0,178.0 L402.0,214.0 L438.0,214.0 L438.0,178.0 L438.0,142.0 L438.0,106.0 L438.0,70.0 M42.0,286.0 L78.0,286.0 L78.0,250.0 L114.0,250.0 L150.0,250.0 L186.0,250.0 L186.0,214.0 L186.0,178.0 L186.0,142.0 L222.0,142.0 L222.0,106.0 L258.0,106.0 L294.0,106.0 L330.0,106.0 L330.0,142.0 L330.0,106.0 L330.0,142.0 L330.0,178.0 L330.0,214.0 L330.0,250.0 L366.0,250.0 L402.0,250.0 L402.0,214.0 L402.0,178.0 L402.0,142.0 L402.0,106.0 L438.0,106.0 L438.0,70.0 M42.0,286.0 L42.0,250.0 L78.0,250.0 L114.0,250.0 L150.0,250.0 L186.0,250.0 L186.0,214.0 L222.0,214.0 L222.0,178.0 L222.0,142.0 L222.0,106.0 L258.0,106.0 L294.0,106.0 L330.0,106.0 L330.0,142.0 L330.0,178.0 L330.0,214.0 L330.0,250.0 L366.0,250.0 L402.0,250.0 L438.0,250.0 L438.0,214.0 L438.0,178.0 L438.0,142.0 L438.0,106.0 L438.0,70.0"/></circle>
<text x="520" y="70" font-size="12" font-weight="600">return per episode</text>
<line x1="520" y1="214" x2="720" y2="214" stroke="var(--mu)"/><line x1="520" y1="84" x2="520" y2="214" stroke="var(--mu)"/>
<line x1="520" y1="84" x2="720" y2="84" stroke="var(--go)" stroke-dasharray="4 4" opacity="0.7"/>
<text x="720" y="80" font-size="10" text-anchor="end" fill="var(--go)" style="fill:var(--go)">π*</text>
<text x="620.0" y="230" font-size="10" text-anchor="middle" class="m">episodes</text>
<polyline points="526.0,164.0 552.9,144.9 579.7,134.7 606.6,126.2 633.4,109.2 660.3,115.5 687.1,93.6 714.0,84.0" fill="none" stroke="var(--ac)" stroke-width="2.4" stroke-linejoin="round" stroke-linecap="round" stroke-dasharray="212.4" stroke-dashoffset="212.4"><animate attributeName="stroke-dashoffset" dur="31.34s" repeatCount="indefinite" keyTimes="0;0.18666;0.32163;0.43937;0.54563;0.63465;0.72942;0.80696;0.87875;0.97447;1" values="212.4;212.4;179.5;150.8;122.6;90.8;63.2;28.5;0.0;0.0;0.0"/><animate attributeName="opacity" dur="31.34s" repeatCount="indefinite" keyTimes="0;0.18666;0.32163;0.43937;0.54563;0.63465;0.72942;0.80696;0.87875;0.97447;1" values="1;1;1;1;1;1;1;1;1;1;0"/></polyline>
<text x="520" y="262" font-size="12" opacity="0">episode 1/8  ·  ε = 0.95<animate attributeName="opacity" dur="31.34s" repeatCount="indefinite" calcMode="discrete" keyTimes="0;0.18666" values="1;0"/></text>
<text x="520" y="262" font-size="12" opacity="0">episode 2/8  ·  ε = 0.75<animate attributeName="opacity" dur="31.34s" repeatCount="indefinite" calcMode="discrete" keyTimes="0;0.18666;0.32163" values="0;1;0"/></text>
<text x="520" y="262" font-size="12" opacity="0">episode 3/8  ·  ε = 0.55<animate attributeName="opacity" dur="31.34s" repeatCount="indefinite" calcMode="discrete" keyTimes="0;0.32163;0.43937" values="0;1;0"/></text>
<text x="520" y="262" font-size="12" opacity="0">episode 4/8  ·  ε = 0.40<animate attributeName="opacity" dur="31.34s" repeatCount="indefinite" calcMode="discrete" keyTimes="0;0.43937;0.54563" values="0;1;0"/></text>
<text x="520" y="262" font-size="12" opacity="0">episode 5/8  ·  ε = 0.25<animate attributeName="opacity" dur="31.34s" repeatCount="indefinite" calcMode="discrete" keyTimes="0;0.54563;0.63465" values="0;1;0"/></text>
<text x="520" y="262" font-size="12" opacity="0">episode 6/8  ·  ε = 0.12<animate attributeName="opacity" dur="31.34s" repeatCount="indefinite" calcMode="discrete" keyTimes="0;0.63465;0.72942" values="0;1;0"/></text>
<text x="520" y="262" font-size="12" opacity="0">episode 7/8  ·  ε = 0.04<animate attributeName="opacity" dur="31.34s" repeatCount="indefinite" calcMode="discrete" keyTimes="0;0.72942;0.80696" values="0;1;0"/></text>
<text x="520" y="262" font-size="12" opacity="0">episode 8/8  ·  ε = 0.00  ·  greedy<animate attributeName="opacity" dur="31.34s" repeatCount="indefinite" calcMode="discrete" keyTimes="0;0.80696" values="0;1"/></text>
<text x="520" y="280" font-size="10" class="m">random exploration → shortest path</text>
</svg>